<svg width="186" height="50" viewBox="0 0 186 50" fill="none" xmlns="http://www.w3.org/2000/svg">
<path d="M4.99244 48.9733L31.8268 22.159C31.8939 22.0785 31.961 22.0047 32.0281 21.9376H23.7544L5.85806 39.8339V25.3598L24.1369 7.08102L38.9531 21.8973L10.8908 49.9597H19.1847L45.1736 23.9708C45.7976 23.3467 46.0794 22.5415 46.0392 21.7363C45.9989 21.0317 45.7171 20.3472 45.1736 19.8238L26.2103 0.860593C25.0629 -0.286864 23.2108 -0.286864 22.0634 0.860593L0.865623 22.0583C0.322091 22.5817 0 23.3266 0 24.152V46.8998C0 47.6446 0.281834 48.4096 0.845497 48.9733C1.99295 50.1207 3.84498 50.1207 4.99244 48.9733Z" fill="white"/>
<path d="M46.0992 46.1546V31.2578L27.3574 49.9996L41.912 49.9392H42.6971C44.6095 49.7379 46.0992 48.1073 46.0992 46.1546Z" fill="white"/>
<path d="M64.9746 44.0011V14.9102H70.2445V28.2767H70.5996L81.949 14.9102H88.3837L77.1337 27.9642L88.4831 44.0011H82.1479L73.4689 31.5295L70.2445 35.3363V44.0011H64.9746ZM96.9597 14.9102V44.0011H91.8176V14.9102H96.9597ZM111.907 44.4272C109.719 44.4272 107.83 43.9727 106.239 43.0636C104.658 42.145 103.441 40.8477 102.588 39.1716C101.736 37.4859 101.31 35.502 101.31 33.2199C101.31 30.9755 101.736 29.0058 102.588 27.3108C103.45 25.6062 104.653 24.2805 106.196 23.3335C107.74 22.377 109.553 21.8988 111.637 21.8988C112.981 21.8988 114.25 22.1166 115.444 22.5522C116.646 22.9784 117.707 23.6413 118.625 24.5409C119.553 25.4405 120.283 26.5863 120.813 27.9784C121.343 29.3609 121.608 31.0087 121.608 32.9216V34.4983H103.725V31.0323H116.679C116.67 30.0475 116.457 29.1716 116.04 28.4045C115.623 27.628 115.041 27.0172 114.293 26.5721C113.554 26.127 112.693 25.9045 111.708 25.9045C110.657 25.9045 109.733 26.1602 108.938 26.6716C108.142 27.1734 107.522 27.8363 107.077 28.6602C106.641 29.4746 106.419 30.3695 106.409 31.3449V34.3704C106.409 35.6394 106.641 36.7284 107.105 37.6375C107.569 38.5371 108.218 39.2284 109.051 39.7113C109.885 40.1848 110.86 40.4216 111.978 40.4216C112.726 40.4216 113.403 40.3174 114.009 40.1091C114.615 39.8913 115.141 39.574 115.586 39.1573C116.031 38.7407 116.367 38.2246 116.594 37.6091L121.395 38.1488C121.092 39.4178 120.515 40.5257 119.662 41.4727C118.819 42.4102 117.74 43.1394 116.424 43.6602C115.107 44.1716 113.602 44.4272 111.907 44.4272ZM136.853 22.1829V26.1602H124.311V22.1829H136.853ZM127.407 16.9556H132.549V37.4386C132.549 38.1299 132.654 38.6602 132.862 39.0295C133.08 39.3894 133.364 39.6356 133.714 39.7681C134.065 39.9007 134.453 39.967 134.879 39.967C135.201 39.967 135.494 39.9433 135.76 39.896C136.034 39.8486 136.243 39.806 136.385 39.7681L137.251 43.788C136.976 43.8827 136.583 43.9869 136.072 44.1005C135.57 44.2142 134.955 44.2805 134.225 44.2994C132.938 44.3373 131.778 44.1431 130.745 43.717C129.713 43.2814 128.894 42.6091 128.288 41.7C127.691 40.7909 127.398 39.6545 127.407 38.2909V16.9556ZM150.436 44.4272C148.258 44.4272 146.388 43.949 144.826 42.9926C143.273 42.0361 142.075 40.7151 141.232 39.0295C140.399 37.3344 139.982 35.3837 139.982 33.1772C139.982 30.9613 140.408 29.0058 141.26 27.3108C142.113 25.6062 143.315 24.2805 144.868 23.3335C146.431 22.377 148.277 21.8988 150.408 21.8988C152.179 21.8988 153.746 22.2255 155.11 22.8789C156.483 23.5229 157.577 24.4367 158.391 25.6204C159.205 26.7947 159.669 28.1678 159.783 29.7397H154.868C154.669 28.6886 154.196 27.8127 153.448 27.1119C152.709 26.4017 151.72 26.0466 150.479 26.0466C149.428 26.0466 148.505 26.3306 147.709 26.8988C146.914 27.4575 146.293 28.2625 145.848 29.3136C145.413 30.3647 145.195 31.6242 145.195 33.092C145.195 34.5788 145.413 35.8572 145.848 36.9272C146.284 37.9878 146.895 38.807 147.681 39.3846C148.476 39.9528 149.409 40.2369 150.479 40.2369C151.237 40.2369 151.914 40.0948 152.51 39.8108C153.116 39.5172 153.623 39.0958 154.03 38.5466C154.437 37.9973 154.717 37.3297 154.868 36.5437H159.783C159.66 38.0873 159.205 39.4556 158.419 40.6488C157.633 41.8325 156.563 42.7606 155.209 43.4329C153.855 44.0958 152.264 44.4272 150.436 44.4272ZM169.147 31.217V44.0011H164.005V14.9102H169.034V25.8903H169.289C169.801 24.6592 170.592 23.6886 171.662 22.9784C172.741 22.2587 174.114 21.8988 175.781 21.8988C177.296 21.8988 178.617 22.2161 179.744 22.8505C180.871 23.485 181.742 24.413 182.358 25.6346C182.983 26.8562 183.295 28.3477 183.295 30.1091V44.0011H178.153V30.9045C178.153 29.4367 177.774 28.2956 177.017 27.4812C176.269 26.6573 175.217 26.2454 173.863 26.2454C172.954 26.2454 172.14 26.4443 171.42 26.842C170.71 27.2303 170.151 27.7937 169.744 28.5323C169.346 29.271 169.147 30.1659 169.147 31.217Z" fill="white"/>
</svg>
