<svg width="90" height="25" viewBox="0 0 90 25" fill="none" xmlns="http://www.w3.org/2000/svg">
<g clip-path="url(#clip0_2402_2729)">
<path d="M2.4157 23.6968L15.4001 10.7221C15.4325 10.6831 15.465 10.6474 15.4975 10.615H11.4941L2.83455 19.2745V12.2709L11.6791 3.4263L18.8483 10.5955L5.26974 24.174H9.28292L21.8582 11.5988C22.1601 11.2968 22.2965 10.9072 22.277 10.5176C22.2575 10.1766 22.1212 9.84542 21.8582 9.59216L12.6824 0.416416C12.1272 -0.138805 11.231 -0.138805 10.6758 0.416416L0.41885 10.6734C0.15585 10.9266 0 11.2871 0 11.6865V22.6935C0 23.0538 0.136371 23.424 0.409111 23.6968C0.964331 24.252 1.86047 24.252 2.4157 23.6968Z" fill="white"/>
<path d="M22.3069 22.3331V15.125L13.2383 24.1936L20.2808 24.1644H20.6607C21.5861 24.067 22.3069 23.278 22.3069 22.3331Z" fill="white"/>
<path d="M31.4395 21.2911V7.21484H33.9894V13.6825H34.1612L39.6529 7.21484H42.7664L37.3229 13.5313L42.8145 21.2911H39.7491L35.5496 15.2564L33.9894 17.0984V21.2911H31.4395ZM46.9161 7.21484V21.2911H44.428V7.21484H46.9161ZM54.1486 21.4973C53.0899 21.4973 52.1758 21.2773 51.406 20.8375C50.641 20.393 50.0521 19.7652 49.6394 18.9542C49.2271 18.1386 49.021 17.1786 49.021 16.0744C49.021 14.9884 49.2271 14.0353 49.6394 13.2151C50.0565 12.3903 50.6386 11.7489 51.3852 11.2906C52.1323 10.8278 53.0096 10.5964 54.0179 10.5964C54.6683 10.5964 55.2823 10.7018 55.86 10.9126C56.4416 11.1188 56.955 11.4396 57.3992 11.8749C57.8483 12.3102 58.2015 12.8646 58.4579 13.5382C58.7144 14.2071 58.8426 15.0044 58.8426 15.93V16.693H50.1895V15.0159H56.4576C56.4533 14.5393 56.3502 14.1155 56.1484 13.7443C55.9466 13.3686 55.665 13.0731 55.3031 12.8577C54.9455 12.6423 54.5289 12.5347 54.0523 12.5347C53.5437 12.5347 53.0966 12.6584 52.712 12.9058C52.3268 13.1487 52.0268 13.4694 51.8115 13.8681C51.6005 14.2621 51.4931 14.6951 51.4883 15.1671V16.6311C51.4883 17.2451 51.6005 17.772 51.825 18.2119C52.0496 18.6472 52.3636 18.9817 52.7666 19.2154C53.1702 19.4445 53.642 19.5591 54.1829 19.5591C54.5449 19.5591 54.8725 19.5087 55.1657 19.4079C55.4589 19.3025 55.7134 19.1489 55.9287 18.9473C56.1441 18.7457 56.3066 18.496 56.4165 18.1982L58.7395 18.4593C58.5929 19.0734 58.3137 19.6094 57.901 20.0677C57.4931 20.5213 56.971 20.8741 56.3342 21.1261C55.697 21.3736 54.9687 21.4973 54.1486 21.4973ZM66.2192 10.7339V12.6584H60.1505V10.7339H66.2192ZM61.6486 8.20455H64.1366V18.1157C64.1366 18.4502 64.1875 18.7068 64.2881 18.8855C64.3936 19.0596 64.531 19.1787 64.7004 19.2429C64.8702 19.307 65.0579 19.3391 65.2641 19.3391C65.4199 19.3391 65.5616 19.3276 65.6904 19.3047C65.8229 19.2818 65.9241 19.2612 65.9928 19.2429L66.4118 21.188C66.2787 21.2338 66.0886 21.2842 65.8413 21.3392C65.5984 21.3942 65.3008 21.4263 64.9476 21.4354C64.3249 21.4538 63.7636 21.3598 63.2637 21.1536C62.7644 20.9428 62.3681 20.6175 62.0749 20.1776C61.786 19.7378 61.6442 19.1879 61.6486 18.5281V8.20455ZM72.7917 21.4973C71.7378 21.4973 70.8329 21.2659 70.0771 20.8031C69.3257 20.3403 68.746 19.7011 68.3381 18.8855C67.935 18.0653 67.7333 17.1214 67.7333 16.0537C67.7333 14.9815 67.9394 14.0353 68.3516 13.2151C68.7644 12.3903 69.346 11.7489 70.0975 11.2906C70.8537 10.8278 71.747 10.5964 72.7781 10.5964C73.635 10.5964 74.3933 10.7545 75.0533 11.0707C75.7176 11.3823 76.247 11.8244 76.6408 12.3972C77.0347 12.9654 77.2592 13.6298 77.3144 14.3904H74.9362C74.8399 13.8818 74.611 13.458 74.2491 13.1189C73.8915 12.7752 73.4129 12.6034 72.8125 12.6034C72.3039 12.6034 71.8573 12.7408 71.4721 13.0158C71.0875 13.2861 70.787 13.6756 70.5717 14.1842C70.3612 14.6928 70.2557 15.3023 70.2557 16.0125C70.2557 16.7319 70.3612 17.3505 70.5717 17.8682C70.7826 18.3814 71.0783 18.7778 71.4586 19.0573C71.8433 19.3322 72.2947 19.4697 72.8125 19.4697C73.1792 19.4697 73.5068 19.4009 73.7952 19.2635C74.0884 19.1215 74.3337 18.9176 74.5307 18.6518C74.7276 18.386 74.8631 18.063 74.9362 17.6827H77.3144C77.2549 18.4296 77.0347 19.0917 76.6544 19.669C76.2741 20.2418 75.7563 20.6908 75.1012 21.0162C74.446 21.3369 73.6762 21.4973 72.7917 21.4973ZM81.8454 15.1052V21.2911H79.3573V7.21484H81.7907V12.5278H81.9141C82.1618 11.9321 82.5446 11.4625 83.0623 11.1188C83.5844 10.7706 84.2487 10.5964 85.0554 10.5964C85.7884 10.5964 86.4276 10.75 86.9729 11.0569C87.5183 11.3639 87.9397 11.813 88.2378 12.4041C88.5402 12.9952 88.6912 13.7169 88.6912 14.5692V21.2911H86.2031V14.954C86.2031 14.2438 86.0197 13.6917 85.6534 13.2976C85.2915 12.8989 84.7825 12.6996 84.1273 12.6996C83.6875 12.6996 83.2936 12.7959 82.9452 12.9883C82.6016 13.1762 82.3312 13.4488 82.1342 13.8062C81.9416 14.1636 81.8454 14.5966 81.8454 15.1052Z" fill="white"/>
</g>
<defs>
<clipPath id="clip0_2402_2729">
<rect width="90" height="24.1935" fill="white"/>
</clipPath>
</defs>
</svg>
