<svg width="24" height="24" viewBox="0 0 24 24" fill="none" xmlns="http://www.w3.org/2000/svg">
<g clip-path="url(#clip0_2402_2736)">
<path d="M2.54933 23.5072L16.252 10.6363C16.2862 10.5977 16.3205 10.5623 16.3548 10.53H12.1299L2.99135 19.1203V12.1727L12.3252 3.39889L19.8909 10.5107L5.56126 23.9807H9.79644L23.0674 11.506C23.386 11.2064 23.53 10.8199 23.5094 10.4334C23.4888 10.0952 23.3449 9.76666 23.0674 9.51542L13.384 0.413085C12.7981 -0.137695 11.8523 -0.137695 11.2664 0.413085L0.44202 10.588C0.164472 10.8392 0 11.1968 0 11.593V22.5119C0 22.8694 0.143915 23.2366 0.431743 23.5072C1.01768 24.0579 1.96339 24.0579 2.54933 23.5072Z" fill="white"/>
<path d="M23.541 22.1544V15.0039L13.9707 24L21.4028 23.971H21.8037C22.7803 23.8744 23.541 23.0917 23.541 22.1544Z" fill="white"/>
</g>
<defs>
<clipPath id="clip0_2402_2736">
<rect width="24" height="24" fill="white"/>
</clipPath>
</defs>
</svg>
