<svg width="101" height="27" viewBox="0 0 101 27" fill="none" xmlns="http://www.w3.org/2000/svg">
<path d="M2.69592 26.4456L17.1865 11.9659C17.2227 11.9224 17.2589 11.8825 17.2952 11.8463H12.8274L3.16335 21.5103V13.6943L13.0339 3.82375L21.0347 11.8245L5.88103 26.9782H10.3597L24.3937 12.9442C24.7307 12.6072 24.8829 12.1724 24.8612 11.7376C24.8394 11.3571 24.6872 10.9875 24.3937 10.7049L14.1536 0.46472C13.534 -0.154907 12.5338 -0.154907 11.9142 0.46472L0.467436 11.9115C0.173929 12.1941 0 12.5964 0 13.0421V25.3259C0 25.7281 0.15219 26.1412 0.456568 26.4456C1.07619 27.0652 2.07629 27.0652 2.69592 26.4456Z" fill="#2563EB"/>
<path d="M24.894 24.9232V16.8789L14.7734 26.9995L22.6329 26.9669H23.0569C24.0896 26.8582 24.894 25.9776 24.894 24.9232Z" fill="#F97316"/>
<path d="M35.0859 23.7599V8.05078H37.9317V15.2687H38.1234L44.2521 8.05078H47.7269L41.6519 15.0999L47.7805 23.7599H44.3595L39.6729 17.0252L37.9317 19.0809V23.7599H35.0859ZM52.3579 8.05078V23.7599H49.5812V8.05078H52.3579ZM60.4293 23.99C59.2478 23.99 58.2277 23.7445 57.3686 23.2536C56.5149 22.7576 55.8577 22.057 55.3971 21.1519C54.937 20.2417 54.7069 19.1704 54.7069 17.938C54.7069 16.726 54.937 15.6624 55.3971 14.7471C55.8625 13.8266 56.5122 13.1107 57.3454 12.5994C58.1791 12.0829 59.1582 11.8246 60.2835 11.8246C61.0093 11.8246 61.6945 11.9422 62.3393 12.1775C62.9884 12.4076 63.5613 12.7656 64.057 13.2514C64.5582 13.7371 64.9524 14.3559 65.2386 15.1076C65.5248 15.8542 65.6679 16.744 65.6679 17.7769V18.6284H56.011V16.7567H63.0062C63.0013 16.2249 62.8863 15.7519 62.6611 15.3377C62.436 14.9184 62.1217 14.5886 61.7178 14.3482C61.3187 14.1079 60.8538 13.9877 60.3219 13.9877C59.7543 13.9877 59.2554 14.1258 58.8261 14.4019C58.3962 14.6729 58.0614 15.0309 57.8211 15.4758C57.5857 15.9156 57.4658 16.3988 57.4604 16.9255V18.5593C57.4604 19.2446 57.5857 19.8326 57.8362 20.3235C58.0868 20.8093 58.4373 21.1826 58.8871 21.4434C59.3374 21.6991 59.8639 21.8269 60.4677 21.8269C60.8716 21.8269 61.2372 21.7707 61.5644 21.6582C61.8916 21.5406 62.1757 21.3692 62.416 21.1442C62.6563 20.9193 62.8377 20.6406 62.9603 20.3082L65.5528 20.5996C65.3892 21.2849 65.0776 21.8832 64.617 22.3945C64.1618 22.9008 63.5791 23.2945 62.8685 23.5758C62.1573 23.8519 61.3446 23.99 60.4293 23.99ZM73.9002 11.978V14.1258H67.1275V11.978H73.9002ZM68.7993 9.1553H71.576V20.2161C71.576 20.5894 71.6327 20.8758 71.745 21.0752C71.8627 21.2696 72.0161 21.4025 72.2051 21.474C72.3946 21.5457 72.6042 21.5815 72.8342 21.5815C73.0081 21.5815 73.1663 21.5687 73.3099 21.5431C73.4579 21.5175 73.5708 21.4945 73.6474 21.474L74.1151 23.6448C73.9666 23.6959 73.7544 23.7522 73.4784 23.8135C73.2074 23.8749 72.8753 23.9107 72.4811 23.921C71.7861 23.9414 71.1597 23.8365 70.6018 23.6065C70.0446 23.3712 69.6023 23.0082 69.2751 22.5173C68.9527 22.0264 68.7945 21.4127 68.7993 20.6764V9.1553ZM81.235 23.99C80.0589 23.99 79.0491 23.7317 78.2056 23.2153C77.367 22.6988 76.72 21.9854 76.2648 21.0752C75.815 20.1599 75.5898 19.1065 75.5898 17.915C75.5898 16.7184 75.8199 15.6624 76.2799 14.7471C76.7406 13.8266 77.3896 13.1107 78.2283 12.5994C79.0723 12.0829 80.0691 11.8246 81.2199 11.8246C82.1762 11.8246 83.0224 12.001 83.7589 12.3539C84.5004 12.7016 85.0911 13.1951 85.5307 13.8343C85.9703 14.4684 86.2208 15.2099 86.2824 16.0587H83.6283C83.5208 15.4911 83.2654 15.0181 82.8615 14.6397C82.4624 14.2562 81.9283 14.0644 81.2582 14.0644C80.6907 14.0644 80.1922 14.2178 79.7624 14.5246C79.3331 14.8263 78.9978 15.261 78.7575 15.8286C78.5226 16.3962 78.4049 17.0763 78.4049 17.869C78.4049 18.6718 78.5226 19.3622 78.7575 19.94C78.9929 20.5127 79.3228 20.9551 79.7473 21.267C80.1766 21.5738 80.6804 21.7272 81.2582 21.7272C81.6675 21.7272 82.0331 21.6505 82.3549 21.4971C82.6822 21.3386 82.956 21.111 83.1757 20.8144C83.3955 20.5178 83.5467 20.1573 83.6283 19.7329H86.2824C86.216 20.5664 85.9703 21.3053 85.5458 21.9496C85.1214 22.5888 84.5436 23.09 83.8124 23.453C83.0812 23.811 82.2221 23.99 81.235 23.99ZM91.3389 16.8565V23.7599H88.5623V8.05078H91.2779V13.98H91.4156C91.6921 13.3152 92.1192 12.7911 92.697 12.4076C93.2797 12.019 94.0211 11.8246 94.9213 11.8246C95.7394 11.8246 96.4527 11.996 97.0613 12.3385C97.6699 12.6812 98.1402 13.1823 98.4729 13.842C98.8104 14.5016 98.9788 15.307 98.9788 16.2582V23.7599H96.2022V16.6877C96.2022 15.8951 95.9975 15.2789 95.5887 14.8391C95.1848 14.3942 94.6167 14.1718 93.8856 14.1718C93.3947 14.1718 92.9551 14.2792 92.5663 14.494C92.1829 14.7036 91.8811 15.0079 91.6613 15.4067C91.4464 15.8056 91.3389 16.2889 91.3389 16.8565Z" fill="#151515"/>
</svg>
