<svg width="47" height="50" viewBox="0 0 47 50" fill="none" xmlns="http://www.w3.org/2000/svg">
<g clip-path="url(#clip0_2402_2718)">
<path d="M4.99244 48.9733L31.8268 22.159C31.8939 22.0785 31.961 22.0047 32.0281 21.9376H23.7544L5.85806 39.8339V25.3598L24.1369 7.08102L38.9531 21.8973L10.8908 49.9597H19.1847L45.1736 23.9708C45.7976 23.3467 46.0795 22.5415 46.0392 21.7363C45.9989 21.0317 45.7171 20.3472 45.1736 19.8238L26.2103 0.860593C25.0629 -0.286864 23.2108 -0.286864 22.0634 0.860593L0.865623 22.0583C0.322091 22.5817 0 23.3266 0 24.152V46.8998C0 47.6446 0.281834 48.4096 0.845497 48.9733C1.99295 50.1207 3.84498 50.1207 4.99244 48.9733Z" fill="#2563EB"/>
<path d="M46.0992 46.1546V31.2578L27.3574 49.9996L41.912 49.9392H42.6971C44.6095 49.7379 46.0992 48.1073 46.0992 46.1546Z" fill="#F97316"/>
</g>
<defs>
<clipPath id="clip0_2402_2718">
<rect width="47" height="50" fill="white"/>
</clipPath>
</defs>
</svg>
